<?xml version="1.0" encoding="UTF-8"?>
<svg width="18px" height="18px" viewBox="0 0 18 18" version="1.1" xmlns="http://www.w3.org/2000/svg" xmlns:xlink="http://www.w3.org/1999/xlink">
    <!-- Generator: Sketch 52.6 (67491) - http://www.bohemiancoding.com/sketch -->
    <title>menu-icon</title>
    <desc>Created with Sketch.</desc>
    <defs>
        <path d="M3,3.6 C2.00588745,3.6 1.2,2.79411255 1.2,1.8 C1.2,0.80588745 2.00588745,0 3,0 C3.99411255,0 4.8,0.80588745 4.8,1.8 C4.8,2.79411255 3.99411255,3.6 3,3.6 Z M0.861538462,9.98167278 C0.373333333,9.98167278 0,9.58417061 0,9.09815461 L0,5.28366544 C0,4.79764945 0.387692308,4.4 0.861538462,4.4 L4.73846154,4.4 C5.21230769,4.4 5.6,4.79764945 5.6,5.28366544 L5.6,5.63713162 C4.83897436,5.97587004 4.30769231,6.75644118 4.30769231,7.65483439 L4.30769231,12.2793502 C4.30769231,12.6475441 4.40820513,13.000863 4.56615385,13.3102932 L4.56615385,13.5163346 C4.56615385,14.0024978 4.17846154,14.4 3.70461538,14.4 L1.89538462,14.4 C1.42153846,14.4 1.03384615,14.0024978 1.03384615,13.5163346 L1.03384615,9.98167278 L0.861538462,9.98167278 Z M15,3.6 C14.0058875,3.6 13.2,2.79411255 13.2,1.8 C13.2,0.80588745 14.0058875,0 15,0 C15.9941125,0 16.8,0.80588745 16.8,1.8 C16.8,2.79411255 15.9941125,3.6 15,3.6 Z M12.4,4.88495575 C12.4,4.3980826 12.7878359,4 13.2615385,4 L17.1384615,4 C17.6124513,4 18,4.39823009 18,4.88495575 L18,8.69026549 C18,9.17699115 17.6124513,9.57522124 17.1384615,9.57522124 L16.9662974,9.57522124 L16.9662974,13.1150442 C16.9662974,13.6017699 16.5786051,14 16.104759,14 L14.2955282,14 C13.8215385,14 13.4339897,13.6017699 13.4339897,13.1150442 L13.4339897,12.9085546 C13.6061538,12.5988201 13.6923077,12.2448378 13.6923077,11.8761062 L13.6923077,7.25958702 C13.6923077,6.35988201 13.1611692,5.57817109 12.4,5.23893805 L12.4,4.88495575 Z M5.65384615,7.29561517 C5.65384615,6.80309403 6.02610566,6.39985075 6.51290656,6.40000004 L11.5409396,6.40000004 C12.0134228,6.40000004 12.4,6.80309403 12.4,7.29576446 L12.4,8.75884635 L12.4,11.9685196 C12.4,12.4613393 12.0134228,12.864284 11.5409396,12.864284 L11.2116331,12.864284 L11.2116331,17.1042356 C11.2116331,17.596906 10.8250559,18 10.3525727,18 L7.70127345,18 C7.22879023,18 6.84221304,17.596906 6.84221304,17.1042356 L6.84221304,12.8792134 L6.51290656,12.8792134 C6.04042334,12.8792134 5.65384615,12.4761194 5.65384615,11.983449 L5.65384615,8.75869706 L5.65384615,7.29561517 Z M9.02692308,6 C7.82676583,6 6.85384615,5.02708032 6.85384615,3.82692308 C6.85384615,2.62676583 7.82676583,1.65384615 9.02692308,1.65384615 C10.2270803,1.65384615 11.2,2.62676583 11.2,3.82692308 C11.2,5.02708032 10.2270803,6 9.02692308,6 Z" id="path-1"></path>
    </defs>
    <g id="menu-icon" stroke="none" stroke-width="1" fill="none" fill-rule="evenodd">
        <mask id="mask-2" fill="white">
            <use xlink:href="#path-1"></use>
        </mask>
        <use id="Combined-Shape" fill="#FFFFFF" xlink:href="#path-1"></use>
    </g>
</svg>