<?xml version="1.0" encoding="UTF-8"?>
<svg width="20px" height="20px" viewBox="0 0 20 20" version="1.1" xmlns="http://www.w3.org/2000/svg" xmlns:xlink="http://www.w3.org/1999/xlink">
    <!-- Generator: Sketch 52.6 (67491) - http://www.bohemiancoding.com/sketch -->
    <title>block-icon</title>
    <desc>Created with Sketch.</desc>
    <defs>
        <path d="M3.33333333,4 C2.22876383,4 1.33333333,3.1045695 1.33333333,2 C1.33333333,0.8954305 2.22876383,0 3.33333333,0 C4.43790283,0 5.33333333,0.8954305 5.33333333,2 C5.33333333,3.1045695 4.43790283,4 3.33333333,4 Z M0.957264957,11.0907475 C0.414814815,11.0907475 0,10.6490785 0,10.1090607 L0,5.87073938 C0,5.33072161 0.430769231,4.88888889 0.957264957,4.88888889 L5.26495726,4.88888889 C5.79145299,4.88888889 6.22222222,5.33072161 6.22222222,5.87073938 L6.22222222,6.26347958 C5.37663818,6.6398556 4.78632479,7.50715687 4.78632479,8.50537154 L4.78632479,13.6437225 C4.78632479,14.0528268 4.8980057,14.4454034 5.07350427,14.7892147 L5.07350427,15.0181495 C5.07350427,15.5583309 4.64273504,16 4.11623932,16 L2.10598291,16 C1.57948718,16 1.14871795,15.5583309 1.14871795,15.0181495 L1.14871795,11.0907475 L0.957264957,11.0907475 Z M16.6666667,4 C15.5620972,4 14.6666667,3.1045695 14.6666667,2 C14.6666667,0.8954305 15.5620972,0 16.6666667,0 C17.7712362,0 18.6666667,0.8954305 18.6666667,2 C18.6666667,3.1045695 17.7712362,4 16.6666667,4 Z M13.7777778,5.42772861 C13.7777778,4.88675844 14.2087066,4.44444444 14.7350427,4.44444444 L19.042735,4.44444444 C19.5693903,4.44444444 20,4.88692232 20,5.42772861 L20,9.65585054 C20,10.1966568 19.5693903,10.6391347 19.042735,10.6391347 L18.8514416,10.6391347 L18.8514416,14.5722714 C18.8514416,15.1130777 18.4206724,15.5555556 17.8941766,15.5555556 L15.8839202,15.5555556 C15.357265,15.5555556 14.9266553,15.1130777 14.9266553,14.5722714 L14.9266553,14.3428384 C15.1179487,13.998689 15.2136752,13.6053753 15.2136752,13.1956735 L15.2136752,8.0662078 C15.2136752,7.06653556 14.6235214,6.19796788 13.7777778,5.82104228 L13.7777778,5.42772861 Z M6.28205128,8.10623908 C6.28205128,7.55899337 6.69567296,7.11094527 7.23656284,7.11111116 L12.8232662,7.11111116 C13.3482476,7.11111116 13.7777778,7.55899337 13.7777778,8.10640496 L13.7777778,9.7320515 L13.7777778,13.2983551 C13.7777778,13.8459325 13.3482476,14.2936489 12.8232662,14.2936489 L12.4573701,14.2936489 L12.4573701,19.0047062 C12.4573701,19.5521178 12.0278399,20 11.5028586,20 L8.5569705,20 C8.03198914,20 7.60245894,19.5521178 7.60245894,19.0047062 L7.60245894,14.3102371 L7.23656284,14.3102371 C6.71158148,14.3102371 6.28205128,13.8623549 6.28205128,13.3149433 L6.28205128,9.73188562 L6.28205128,8.10623908 Z M10.0299145,6.66666667 C8.69640648,6.66666667 7.61538462,5.5856448 7.61538462,4.25213675 C7.61538462,2.9186287 8.69640648,1.83760684 10.0299145,1.83760684 C11.3634226,1.83760684 12.4444444,2.9186287 12.4444444,4.25213675 C12.4444444,5.5856448 11.3634226,6.66666667 10.0299145,6.66666667 Z" id="path-1"></path>
    </defs>
    <g id="block-icon" stroke="none" stroke-width="1" fill="none" fill-rule="evenodd">
        <mask id="mask-2" fill="white">
            <use xlink:href="#path-1"></use>
        </mask>
        <use id="Combined-Shape" fill="#555D66" fill-rule="nonzero" xlink:href="#path-1"></use>
    </g>
</svg>